# xmcd
#
# Track frame offsets:
#	185
#	18207
#	37137
#	55487
#	70582
#	103307
#	121877
#	147730
#	168730
#	183525
#	205612
#	235255
#
# Disc length: 3757 seconds
#
# Revision: 0
# Processed by: cddbd v1.5.1PL2 Copyright (c) Steve Scherf et al.
# Submitted via: audiograbber 1.83.01
#
DISCID=b30eab0c
DTITLE=Various Artist - MOUSIKES TOU KOSMOU CD2
DYEAR=1900
DGENRE=
TTITLE0=PYX-LAX - Den tha dakriso
TTITLE1=PORTOKALOGLOU - Dyo ksenoi
TTITLE2=HRISTIANAKIS - Templo
TTITLE3=SECRET GARDEN - Moving
TTITLE4=ENIGMA - The eyes of truth
TTITLE5=IAN ANDERSON - In the pain of Spain
TTITLE6=ERNEST RANGLIN - Surfin
TTITLE7=MIKE OLDFIELD - Incantations
TTITLE8=GIOVINDA - A modern mantra
TTITLE9=BAABA MAAL - Sidiiki
TTITLE10=SALIF KEITA - Tekere
TTITLE11=PHAROAH SANDERS - Our Roots
EXTD=
EXTT0=
EXTT1=
EXTT2=
EXTT3=
EXTT4=
EXTT5=
EXTT6=
EXTT7=
EXTT8=
EXTT9=
EXTT10=
EXTT11=
PLAYORDER=
